<svg xmlns="http://www.w3.org/2000/svg" width="257" height="90" viewBox="0 0 257 90">
  <path fill="#F9E8CE" fill-rule="evenodd" d="M5.72589074,70.7517532 C6.3669074,72.1991657 7.22826062,73.6666592 8.30997625,75.1542777 C9.39169187,76.6418962 10.7137689,77.9887738 12.276247,79.1949509 C13.8387252,80.4011281 15.661589,81.3861579 17.7448931,82.1500701 C19.8281973,82.9139823 22.1518478,83.2959327 24.7159145,83.2959327 C27.3601082,83.2959327 29.7438532,82.8335717 31.8672209,81.9088359 C33.9905886,80.9841001 35.7934209,79.7377358 37.275772,78.1697055 C38.758123,76.6016752 39.8999168,74.7522313 40.7011876,72.6213184 C41.5024585,70.4904054 41.9030879,68.2188059 41.9030879,65.8064516 C41.9030879,62.1075084 40.9616088,59.1725214 39.0786223,57.0014025 C37.1956359,54.8302837 34.8519538,53.0210451 32.0475059,51.5736325 C29.243058,50.12622 26.218306,48.799445 22.9731591,47.5932679 C19.7280123,46.3870907 16.7032603,44.8793919 13.8988124,43.0701262 C11.0943644,41.2608605 8.75068242,38.9490557 6.86769596,36.1346424 C4.98470951,33.320229 4.0432304,29.5409307 4.0432304,24.7966339 C4.0432304,21.419338 4.64417451,18.3436324 5.84608076,15.569425 C7.04798701,12.7952175 8.79072492,10.4030021 11.0743468,8.39270687 C13.3579687,6.38241164 16.1022801,4.81440488 19.3073634,3.68863955 C22.5124467,2.56287422 26.1181114,2 30.1244656,2 C33.9705655,2 37.2957896,2.46236097 40.1002375,3.38709677 C42.9046854,4.31183258 45.5087766,5.73912079 47.9125891,7.66900421 C47.1914453,9.03600496 46.5905012,10.4833958 46.1097387,12.0112202 C45.6289762,13.5390446 45.1482209,15.468899 44.6674584,17.8008415 L43.2251781,17.8008415 C42.8245427,16.6750762 42.283693,15.4488145 41.6026128,14.1220196 C40.9215326,12.7952248 40.000085,11.5689631 38.8382423,10.4431978 C37.6763996,9.31743243 36.2942281,8.37260784 34.6916865,7.60869565 C33.0891448,6.84478346 31.1661236,6.4628331 28.9225653,6.4628331 C26.679007,6.4628331 24.6157656,6.82468081 22.7327791,7.5483871 C20.8497926,8.27209338 19.2072121,9.29732857 17.8049881,10.6241234 C16.4027642,11.9509183 15.3210648,13.5390277 14.5598575,15.3884993 C13.7986502,17.2379709 13.4180523,19.248236 13.4180523,21.4193548 C13.4180523,25.1987099 14.3595314,28.1739022 16.2425178,30.345021 C18.1255043,32.5161399 20.4691863,34.3454811 23.2736342,35.8330996 C26.0780821,37.3207181 29.1028341,38.647493 32.347981,39.8134642 C35.5931279,40.9794355 38.6178799,42.4067237 41.4223278,44.0953717 C44.2267757,45.7840197 46.5704577,47.9551059 48.4534442,50.6086957 C50.3364306,53.2622854 51.2779097,56.8003519 51.2779097,61.2230014 C51.2779097,64.9219446 50.6168712,68.4198059 49.2947743,71.71669 C47.9726775,75.0135742 46.0496563,77.8882533 43.5256532,80.3408135 C41.0016501,82.7933736 37.9168037,84.6830228 34.2710214,86.0098177 C30.6252391,87.3366125 26.4787247,88 21.8313539,88 C16.8634748,88 12.8371492,87.3366125 9.75225653,86.0098177 C6.66736383,84.6830228 4.08330416,83.175324 2,81.486676 C2.72114375,79.6372044 3.22193051,77.9686844 3.5023753,76.4810659 C3.78282009,74.9934474 4.0432292,73.0836956 4.28361045,70.7517532 L5.72589074,70.7517532 Z M84.2099762,86.4319776 C83.5689596,84.4216823 82.5874175,81.2454635 81.2653207,76.9032258 C79.9432238,72.5609881 78.4408635,67.6559413 76.7581948,62.1879383 C75.075526,56.7199353 73.3127566,50.9906798 71.4698337,45 C69.6269108,39.0093202 67.8641414,33.3001674 66.1814727,27.8723703 C64.4988039,22.4445731 62.9563807,17.559629 61.5541568,13.2173913 C60.1519328,8.8751536 59.0502019,5.65872948 58.2489311,3.56802244 C59.2905832,3.72884606 60.2921567,3.86956461 61.2536817,3.99018233 C62.2152067,4.11080004 63.2167802,4.17110799 64.2584323,4.17110799 C65.3000844,4.17110799 66.3016579,4.11080004 67.2631829,3.99018233 C68.2247079,3.86956461 69.2262814,3.72884606 70.2679335,3.56802244 C71.7903481,9.67931994 73.2726769,15.4085754 74.7149644,20.7559607 C76.1572519,26.103346 77.6996751,31.5310618 79.3422803,37.0392707 C80.9848855,42.5474796 82.7476549,48.337043 84.6306413,54.4081346 C86.5136278,60.4792262 88.6569951,67.3342302 91.0608076,74.973352 L91.3011876,74.973352 C92.0223314,72.8022332 93.0239049,69.8069382 94.3059382,65.9873773 C95.5879716,62.1678163 96.9901745,57.9462597 98.5125891,53.3225806 C100.035004,48.6989016 101.637521,43.8943681 103.32019,38.9088359 C105.002859,33.9233037 106.565313,29.1589755 108.007601,24.6157083 C109.449888,20.0724411 110.731903,15.931295 111.853682,12.1921459 C112.975461,8.45299673 113.77672,5.57831767 114.257482,3.56802244 C115.860024,3.97008149 117.182101,4.17110799 118.223753,4.17110799 C119.265405,4.17110799 120.587482,3.97008149 122.190024,3.56802244 C122.750913,5.73914129 123.612267,8.7143336 124.774109,12.4936886 C125.935952,16.2730437 127.237998,20.4744977 128.680285,25.0981767 C130.122573,29.7218558 131.664996,34.5263893 133.307601,39.5119215 C134.950206,44.4974536 136.532692,49.2818845 138.055107,53.8653576 C139.577521,58.4488308 140.959693,62.5899768 142.201663,66.2889201 C143.443632,69.9878633 144.425175,72.882645 145.146318,74.973352 L145.386698,74.973352 C145.947588,73.2042922 146.808941,70.4502291 147.970784,66.7110799 C149.132627,62.9719308 150.454704,58.7503742 151.937055,54.0462833 C153.419406,49.3421925 154.941797,44.3969404 156.504276,39.2103787 C158.066754,34.023817 159.549082,29.0785649 160.951306,24.3744741 C162.35353,19.6703832 163.595482,15.4689292 164.677197,11.769986 C165.758913,8.07104275 166.500077,5.33708224 166.900713,3.56802244 C167.621856,3.72884606 168.322958,3.86956461 169.004038,3.99018233 C169.685118,4.11080004 170.38622,4.17110799 171.107363,4.17110799 C171.828507,4.17110799 172.529609,4.11080004 173.210689,3.99018233 C173.891769,3.86956461 174.592871,3.72884606 175.314014,3.56802244 C174.512743,5.41749405 173.350918,8.47309697 171.828504,12.7349229 C170.306089,16.9967488 168.603414,21.8615902 166.720428,27.3295933 C164.837441,32.7975963 162.874357,38.5871597 160.831116,44.6984572 C158.787876,50.8097547 156.824792,56.6194208 154.941805,62.1276297 C153.058819,67.6358387 151.376175,72.5810908 149.893824,76.9635344 C148.411473,81.345978 147.309742,84.5020941 146.588599,86.4319776 C145.306565,86.2711539 143.944425,86.1907433 142.502138,86.1907433 C141.05985,86.1907433 139.69771,86.2711539 138.415677,86.4319776 C134.809958,75.2547361 131.244357,64.0173543 127.718765,52.7194951 C124.193173,41.4216359 120.387194,29.7419958 116.300713,17.6802244 L116.060333,17.6802244 C115.419316,19.529696 114.557963,22.0023221 113.476247,25.0981767 C112.394531,28.1940314 111.192643,31.67179 109.870546,35.5315568 C108.548449,39.3913236 107.126215,43.5324697 105.6038,47.9551192 C104.081386,52.3777687 102.558994,56.8405572 101.03658,61.3436185 C99.514165,65.8466798 98.0318362,70.269263 96.5895487,74.6115007 C95.1472612,78.9537384 93.8251842,82.893858 92.6232779,86.4319776 C91.3412446,86.2711539 89.9390417,86.1907433 88.4166271,86.1907433 C86.8942125,86.1907433 85.4920096,86.2711539 84.2099762,86.4319776 Z M201.755819,48.9200561 C203.839124,48.9200561 206.002522,48.9602614 208.246081,49.0406732 C210.489639,49.121085 212.653038,49.1612903 214.736342,49.1612903 C216.9799,49.1612903 219.223425,49.1411877 221.466983,49.1009818 C223.710542,49.0607759 225.954066,49.0004679 228.197625,48.9200561 L214.856532,18.28331 L201.755819,48.9200561 Z M255,86.4319776 C253.878221,86.2711539 252.816553,86.1907433 251.814964,86.1907433 L245.444893,86.1907433 C244.443305,86.1907433 243.381637,86.2711539 242.259857,86.4319776 C241.698968,84.5825059 240.937772,82.3511117 239.976247,79.7377279 C239.014722,77.1243441 237.953054,74.3903836 236.791211,71.5357644 C235.629369,68.6811451 234.447512,65.7863634 233.245606,62.8513324 C232.043699,59.9163014 230.921937,57.1220329 229.880285,54.4684432 C227.316218,54.3880314 224.712127,54.3277234 222.067933,54.2875175 C219.42374,54.2473116 216.779586,54.227209 214.135392,54.227209 C211.651452,54.227209 209.207613,54.2473116 206.8038,54.2875175 C204.399988,54.3277234 201.956149,54.3880314 199.472209,54.4684432 C196.908142,60.7405643 194.584492,66.7110516 192.501188,72.3800842 C190.417883,78.0491167 188.855429,82.7330343 187.813777,86.4319776 C186.451616,86.2711539 184.969288,86.1907433 183.366746,86.1907433 C181.764204,86.1907433 180.281875,86.2711539 178.919715,86.4319776 C185.410009,72.3599109 191.739953,58.368466 197.909739,44.457223 C204.079524,30.54598 210.28928,16.3937139 216.539192,2 L218.822803,2 C220.745853,6.66388494 222.829126,11.7096503 225.072684,17.1374474 C227.316242,22.5652445 229.59983,28.0532682 231.923515,33.601683 C234.247201,39.1500979 236.570851,44.6582242 238.894537,50.1262272 C241.218222,55.5942302 243.401652,60.6802009 245.444893,65.3842917 C247.488134,70.0883826 249.331029,74.2898366 250.973634,77.9887798 C252.616239,81.687723 253.958348,84.5020941 255,86.4319776 Z"/>
</svg>
